:SAMPLES-PER-SECOND 30
:FRAME-RANGE 1-744
:FULLY-SPECIFIED
:DEGREES
256
root  -9.45605 38.7828 16.8738 -5.98254 54.7377 -5.03647
RightUpLeg  7.97298 -11.5455 1.07212
RightLeg  19.0535 -5.08519 -1.88546
RightFoot  -19.0311 0.149745 4.14578
RightToes  -5.28216e-011 1.2921e-014 -6.02303e-014
Spine  -5.54778 5.74298 15.243
Spine1  6.74117 7.2895 -9.66985
HEad  15.1277 19.4771 -4.77269
LeftShoulder1  1.25414 -2.22484 -16.1789
LeftArm  -11.7523 -12.9325 -48.9705
LeftForeArm  -8.8796 -43.9133 -11.344
LeftHand  -0.0244768 4.10595 0.208211
RightShoulder  2.55649 7.31976 17.5841
RightArm  3.6288 44.4162 59.269
RightForeArm  3.22188 17.7822 6.94274
RightHand  -0.0354796 -3.58441 -0.54975
LeftUpLeg  -20.1726 -3.45784 -2.96318
LeftLeg  -1.6026 8.14718 1.56998
LeftFoot  -4.90454 0.230383 -3.57321
LeftToes  -9.4837e-011 -7.11147e-011 -1.07582e-011
257
root  -8.67992 38.5005 17.9312 -6.631 56.2183 -5.80975
RightUpLeg  9.24973 -12.0405 1.96755
RightLeg  21.0189 -5.44944 -2.52486
RightFoot  -20.3848 0.307484 5.63266
RightToes  -5.28216e-011 1.2921e-014 -6.02303e-014
Spine  -5.55543 5.95679 15.7801
Spine1  6.50789 7.55011 -10.167
HEad  15.6092 18.503 -3.93492
LeftShoulder1  1.18331 -1.98671 -15.8307
LeftArm  -11.8778 -13.6388 -48.6442
LeftForeArm  -9.77746 -43.2474 -11.1415
LeftHand  -0.0194506 4.01777 -0.221719
RightShoulder  2.64319 7.5829 17.8204
RightArm  2.23994 45.4735 59.719
RightForeArm  4.46054 16.3511 7.58791
RightHand  -0.033071 -3.54811 -0.806335
LeftUpLeg  -20.3266 -4.36602 -3.30881
LeftLeg  -2.57333 7.3892 2.0967
LeftFoot  -6.91013 0.212278 -4.41468
LeftToes  -9.4837e-011 -7.11147e-011 -1.07582e-011
258
root  -7.91394 38.186 18.9671 -6.96729 57.9487 -6.07039
RightUpLeg  10.0282 -12.5002 2.51205
RightLeg  24.2004 -5.79376 -3.06281
RightFoot  -21.6337 0.50456 7.22519
RightToes  -5.28216e-011 1.2921e-014 -6.02303e-014
Spine  -5.19207 5.9335 15.4243
Spine1  6.39697 7.6326 -10.3729
HEad  14.7508 17.4407 -3.1943
LeftShoulder1  1.12819 -1.84969 -15.3109
LeftArm  -12.0445 -14.3127 -48.1812
LeftForeArm  -10.3124 -43.3685 -11.2197
LeftHand  -0.022126 4.2818 -0.021896
RightShoulder  2.73074 7.82549 18.1022
RightArm  1.07842 46.3127 60.0982
RightForeArm  5.6313 15.7716 7.71136
RightHand  -0.0339354 -3.74084 -0.839251
LeftUpLeg  -22.0343 -4.5257 -3.71905
LeftLeg  2.80307 3.76877 1.99738
LeftFoot  -3.59482 0.166903 -2.14608
LeftToes  -9.4837e-011 -7.11147e-011 -1.07582e-011
259
root  -7.10723 38.0134 19.9655 -6.16257 58.8697 -4.89149
RightUpLeg  10.5608 -11.9759 2.27156
RightLeg  27.7708 -5.56583 -3.40144
RightFoot  -21.6024 0.715756 9.58787
RightToes  -5.28216e-011 1.2921e-014 -6.02303e-014
Spine  -4.6802 6.26871 14.2738
Spine1  6.62216 8.16509 -10.5494
HEad  13.2455 16.1527 -2.69863
LeftShoulder1  1.09744 -1.75926 -15.0736
LeftArm  -11.9151 -15.2916 -47.6227
LeftForeArm  -10.8531 -43.2009 -11.1876
LeftHand  -0.0232567 4.16236 -0.58043
RightShoulder  2.79822 7.97601 18.3974
RightArm  -0.225672 47.0185 60.2955
RightForeArm  6.55736 15.2766 7.74822
RightHand  -0.033176 -3.69788 -0.68831
LeftUpLeg  -22.7785 -6.40029 -4.35684
LeftLeg  6.2536 2.13467 2.76204
LeftFoot  4.01358 0.0876222 -0.830795
LeftToes  -9.4837e-011 -7.11147e-011 -1.07582e-011
260
root  -6.30144 37.873 20.9256 -4.38933 59.5399 -2.9899
RightUpLeg  8.9555 -11.4921 1.23749
RightLeg  34.566 -3.39947 -2.76867
RightFoot  -20.1032 0.85932 12.9538
RightToes  -5.28216e-011 1.2921e-014 -6.02303e-014
Spine  -3.79249 6.50631 12.9125
Spine1  6.14919 8.5672 -11.068
HEad  12.03 15.0875 -2.19024
LeftShoulder1  1.06557 -1.55637 -15.3451
LeftArm  -12.3272 -16.076 -46.8578
LeftForeArm  -11.352 -42.5106 -10.9568
LeftHand  -0.0245886 4.12327 -0.500639
RightShoulder  2.90897 8.21647 18.8798
RightArm  -2.32952 47.0464 61.3409
RightForeArm  8.32028 14.693 7.60344
RightHand  -0.0304427 -3.65505 -1.00635
LeftUpLeg  -23.9965 -8.84903 -4.16071
LeftLeg  10.717 3.85869 2.84192
LeftFoot  7.24148 0.325805 -2.2613
LeftToes  -9.4837e-011 -7.11147e-011 -1.07582e-011
261
root  -5.55624 37.8497 21.7586 -3.70992 61.2412 -2.60515
RightUpLeg  5.27729 -12.8087 0.0397511
RightLeg  43.6236 -0.2521 -0.558758
RightFoot  -14.8781 0.413076 16.5628
RightToes  -5.28216e-011 1.2921e-014 -6.02303e-014
Spine  -3.08614 6.34202 12.804
Spine1  6.10884 8.61059 -12.0877
HEad  10.5296 13.3874 -2.15801
LeftShoulder1  1.12091 -1.83024 -15.2465
LeftArm  -13.2328 -16.6661 -46.8655
LeftForeArm  -11.5655 -41.7018 -10.6724
LeftHand  -0.0236061 4.14983 0.102996
RightShoulder  2.91431 8.32056 18.6855
RightArm  -4.60246 46.8588 62.2526
RightForeArm  10.1041 14.1905 7.30173
RightHand  -0.0283079 -3.44168 -0.830676
LeftUpLeg  -24.5564 -8.94837 -4.11929
LeftLeg  13.6709 2.54861 1.80545
LeftFoot  8.62029 0.250608 -1.72313
LeftToes  -9.4837e-011 -7.11147e-011 -1.07582e-011
262
root  -4.8312 37.958 22.5296 -2.86388 62.7698 -2.22223
RightUpLeg  0.169459 -14.0413 -1.3252
RightLeg  53.1882 1.4906 1.75264
RightFoot  -6.8695 -0.681733 16.1564
RightToes  -5.28216e-011 1.2921e-014 -6.02303e-014
Spine  -2.80801 6.29689 12.15
Spine1  6.41392 8.56958 -11.8797
HEad  9.36908 11.8685 -2.81021
LeftShoulder1  1.20743 -2.14174 -15.62
LeftArm  -13.9286 -17.0856 -46.8008
LeftForeArm  -11.3302 -41.5416 -10.6012
LeftHand  -0.0177305 4.0259 -0.385471
RightShoulder  2.87972 8.40188 18.1768
RightArm  -6.04053 47.4016 62.2718
RightForeArm  11.1513 13.1244 7.39317
RightHand  -0.0264616 -3.34383 -0.876006
LeftUpLeg  -24.3343 -10.0798 -4.39789
LeftLeg  15.0695 1.73901 1.49387
LeftFoot  9.37352 -0.445316 2.12317
LeftToes  -9.4837e-011 -7.11147e-011 -1.07582e-011
